<?xml version="1.0" encoding="iso-8859-1"?>
<!-- Generator: Adobe Illustrator 19.0.0, SVG Export Plug-In . SVG Version: 6.00 Build 0)  -->
<svg version="1.1" id="Layer_1" xmlns="http://www.w3.org/2000/svg" xmlns:xlink="http://www.w3.org/1999/xlink" x="0px" y="0px"
	 viewBox="0 0 512.001 512.001" style="enable-background:new 0 0 512.001 512.001;" xml:space="preserve">
<path style="fill:#7DE3EA;" d="M200.579,469.307h-53.842c-17.519,0-31.721-14.202-31.721-31.72V39.812
	c0-17.519,14.2-31.72,31.721-31.72h218.527c17.519,0,31.721,14.199,31.721,31.72v106.264v291.51c0,17.516-14.2,31.72-31.721,31.72
	H227.195"/>
<path style="fill:#49D0E2;" d="M396.983,39.812c0-17.519-14.2-31.72-31.721-31.72H146.735c-17.519,0-31.721,14.199-31.721,31.72
	v156.556h281.968V65.693"/>
<g>
	<path style="fill:#636D77;" d="M138.663,469.302v21.656c0,7.153,5.798,12.949,12.949,12.949h17.263
		c7.151,0,12.949-5.796,12.949-12.949v-21.656H138.663z"/>
	<path style="fill:#636D77;" d="M330.176,469.302v21.656c0,7.153,5.798,12.949,12.949,12.949h17.263
		c7.151,0,12.949-5.796,12.949-12.949v-21.656H330.176z"/>
</g>
<g style="opacity:0.2;">
	<path style="fill:#020202;" d="M164.398,490.959v-21.656h-25.735v21.656c0,7.153,5.798,12.949,12.949,12.949h17.263
		c1.486,0,2.907-0.262,4.236-0.723C168.042,501.428,164.398,496.626,164.398,490.959z"/>
</g>
<g style="opacity:0.2;">
	<path style="fill:#020202;" d="M355.911,490.959v-21.656h-25.735v21.656c0,7.153,5.798,12.949,12.949,12.949h17.263
		c1.486,0,2.907-0.262,4.236-0.723C359.556,501.428,355.911,496.626,355.911,490.959z"/>
</g>
<path style="fill:#A8F2F4;" d="M115.016,196.368v26.976h12.856h43.163h21.58c7.151,0,12.949-5.798,12.949-12.949v-14.028H115.016z"
	/>
<g>
	<path style="fill:#020202;" d="M396.983,57.6c-4.47,0-8.093,3.622-8.093,8.093v80.383v42.198H205.563h-82.454V39.812
		c0-13.027,10.598-23.627,23.627-23.627h218.528c13.028,0,23.627,10.598,23.627,23.627c0,4.47,3.622,8.093,8.093,8.093
		s8.093-3.622,8.093-8.093C405.076,17.859,387.217,0,365.263,0H146.735c-21.953,0-39.812,17.859-39.812,39.812v156.556v26.976
		v214.243c0,16.199,9.73,30.158,23.647,36.369v17.002c0,11.602,9.439,21.041,21.041,21.041h17.263
		c11.602,0,21.041-9.439,21.041-21.041V477.4h10.663c4.47,0,8.093-3.622,8.093-8.093s-3.622-8.093-8.093-8.093h-18.672
		c-0.028,0-0.055-0.004-0.083-0.004h-35.252c-12.952-0.09-23.462-10.65-23.462-23.622V231.437h69.506
		c11.602,0,21.041-9.439,21.041-21.041v-5.935h175.235v233.126c0,12.971-10.509,23.532-23.462,23.622h-35.252
		c-0.028,0-0.055,0.003-0.083,0.004H227.197c-4.47,0-8.093,3.622-8.093,8.093s3.622,8.093,8.093,8.093h94.889v13.559
		c0,11.602,9.439,21.041,21.041,21.041h17.263c11.602,0,21.041-9.439,21.041-21.041v-17.003
		c13.918-6.211,23.647-20.171,23.647-36.369V196.368v-50.291V65.693C405.076,61.223,401.454,57.6,396.983,57.6z M173.73,490.959
		c0,2.677-2.179,4.856-4.856,4.856h-17.263c-2.677,0-4.856-2.179-4.856-4.856v-13.559h26.974V490.959z M197.47,210.395
		c0,2.677-2.179,4.856-4.856,4.856h-69.506v-10.79h74.361V210.395z M360.387,495.814h-17.263c-2.677,0-4.856-2.179-4.856-4.856
		v-13.559h26.974v13.559C365.243,493.637,363.065,495.814,360.387,495.814z"/>
	<path style="fill:#020202;" d="M355.277,45.912v111.915c0,4.47,3.622,8.093,8.093,8.093s8.093-3.622,8.093-8.093V45.912
		c0-4.47-3.622-8.093-8.093-8.093S355.277,41.442,355.277,45.912z"/>
	<path style="fill:#020202;" d="M355.277,422.179c0,4.47,3.622,8.093,8.093,8.093s8.093-3.622,8.093-8.093v-5.434
		c0-4.47-3.622-8.093-8.093-8.093s-8.093,3.622-8.093,8.093V422.179z"/>
	<path style="fill:#020202;" d="M363.37,398.576c4.47,0,8.093-3.622,8.093-8.093v-156.1c0-4.47-3.622-8.093-8.093-8.093
		s-8.093,3.622-8.093,8.093v156.1C355.277,394.953,358.899,398.576,363.37,398.576z"/>
	<path style="fill:#020202;" d="M154.539,64.366c-4.47,0-8.093,3.622-8.093,8.093v66.609c0,4.47,3.622,8.093,8.093,8.093
		s8.093-3.622,8.093-8.093V80.552h4.856c4.47,0,8.093-3.622,8.093-8.093c0-4.47-3.622-8.093-8.093-8.093H154.539z"/>
</g>
<g style="opacity:0.2;">
	<path style="fill:#020202;" d="M140.389,437.587V39.812c0-17.519,14.2-31.72,31.72-31.72h-25.373
		c-17.519,0-31.721,14.199-31.721,31.72v397.776c0,17.516,14.2,31.72,31.721,31.72h25.373
		C154.589,469.307,140.389,455.104,140.389,437.587z"/>
</g>
<g>
</g>
<g>
</g>
<g>
</g>
<g>
</g>
<g>
</g>
<g>
</g>
<g>
</g>
<g>
</g>
<g>
</g>
<g>
</g>
<g>
</g>
<g>
</g>
<g>
</g>
<g>
</g>
<g>
</g>
</svg>
